<svg width="60" height="60" viewBox="0 0 60 60" fill="none" xmlns="http://www.w3.org/2000/svg">
<path fill-rule="evenodd" clip-rule="evenodd" d="M59.2015 4.65574C60.2662 3.59069 60.2662 1.86389 59.2015 0.798832C58.1362 -0.266277 56.4093 -0.266277 55.344 0.798832L30 26.143L4.65574 0.798832C3.59069 -0.266277 1.86389 -0.266277 0.798832 0.798832C-0.266277 1.86389 -0.266277 3.59069 0.798832 4.65574L26.143 30L0.798832 55.344C-0.266277 56.4093 -0.266277 58.1362 0.798832 59.2015C1.86389 60.2662 3.59069 60.2662 4.65574 59.2015L30 33.857L55.344 59.2015C56.4093 60.2662 58.1362 60.2662 59.2015 59.2015C60.2662 58.1362 60.2662 56.4093 59.2015 55.344L33.857 30L59.2015 4.65574Z" fill="#757F8A"/>
</svg>
