<svg width="1024" height="1024" viewBox="0 0 1024 1024" fill="none" xmlns="http://www.w3.org/2000/svg">
<path d="M385.83 766.189C355.381 764.804 338.84 759.737 327.839 755.446C313.261 749.77 302.868 743.014 291.927 732.088C280.986 721.163 274.215 710.77 268.569 696.192C264.278 685.19 259.211 668.649 257.826 638.201C256.304 605.287 256 595.411 256 512.023C256 428.635 256.335 418.774 257.811 385.83C259.196 355.381 264.293 338.871 268.554 327.839C274.23 313.261 281.001 302.868 291.912 291.912C302.837 280.986 313.23 274.199 327.823 268.554C338.825 264.263 355.366 259.196 385.815 257.811C418.744 256.304 428.635 256 511.992 256C595.381 256 605.241 256.335 638.185 257.811C668.634 259.196 685.144 264.293 696.177 268.554C710.754 274.199 721.147 280.986 732.088 291.912C743.029 302.837 749.77 313.246 755.446 327.823C759.737 338.825 764.804 355.366 766.189 385.815C767.696 418.759 768 428.619 768 512.008C768 595.365 767.696 605.256 766.189 638.201C764.804 668.649 759.707 685.19 755.446 696.192C749.77 710.77 743.014 721.163 732.088 732.088C721.163 743.014 710.754 749.77 696.177 755.446C685.175 759.737 668.634 764.804 638.185 766.189C605.271 767.696 595.381 768 511.992 768C428.635 768 418.744 767.711 385.83 766.189" fill="url(#paint0_radial_240_5044)"/>
<path d="M385.83 766.189C355.381 764.804 338.84 759.737 327.839 755.446C313.261 749.77 302.868 743.014 291.927 732.088C280.986 721.163 274.215 710.77 268.569 696.192C264.278 685.19 259.211 668.649 257.826 638.201C256.304 605.287 256 595.411 256 512.023C256 428.635 256.335 418.774 257.811 385.83C259.196 355.381 264.293 338.871 268.554 327.839C274.23 313.261 281.001 302.868 291.912 291.912C302.837 280.986 313.23 274.199 327.823 268.554C338.825 264.263 355.366 259.196 385.815 257.811C418.744 256.304 428.635 256 511.992 256C595.381 256 605.241 256.335 638.185 257.811C668.634 259.196 685.144 264.293 696.177 268.554C710.754 274.199 721.147 280.986 732.088 291.912C743.029 302.837 749.77 313.246 755.446 327.823C759.737 338.825 764.804 355.366 766.189 385.815C767.696 418.759 768 428.619 768 512.008C768 595.365 767.696 605.256 766.189 638.201C764.804 668.649 759.707 685.19 755.446 696.192C749.77 710.77 743.014 721.163 732.088 732.088C721.163 743.014 710.754 749.77 696.177 755.446C685.175 759.737 668.634 764.804 638.185 766.189C605.271 767.696 595.381 768 511.992 768C428.635 768 418.744 767.711 385.83 766.189" fill="url(#paint1_radial_240_5044)"/>
<path d="M449.139 513.091C449.139 478.076 477.517 449.683 512.532 449.683C547.548 449.683 575.941 478.076 575.941 513.091C575.941 548.106 547.548 576.499 512.532 576.499C477.517 576.499 449.139 548.106 449.139 513.091V513.091ZM414.862 513.091C414.862 567.035 458.589 610.762 512.532 610.762C566.476 610.762 610.203 567.035 610.203 513.091C610.203 459.147 566.476 415.42 512.532 415.42C458.589 415.42 414.863 459.144 414.863 513.091H414.862ZM591.246 411.548C591.244 416.062 592.581 420.476 595.088 424.23C597.594 427.985 601.158 430.912 605.328 432.641C609.498 434.37 614.087 434.824 618.515 433.945C622.943 433.066 627.011 430.894 630.205 427.703C633.398 424.512 635.574 420.446 636.456 416.019C637.339 411.591 636.888 407.002 635.162 402.83C633.437 398.659 630.512 395.093 626.76 392.583C623.007 390.074 618.595 388.733 614.08 388.732H614.071C608.02 388.734 602.217 391.139 597.938 395.417C593.658 399.695 591.251 405.497 591.246 411.548V411.548ZM435.688 667.919C417.143 667.074 407.063 663.985 400.365 661.376C391.484 657.918 385.148 653.801 378.486 647.148C371.824 640.495 367.7 634.165 364.258 625.285C361.647 618.589 358.558 608.506 357.715 589.962C356.793 569.912 356.609 563.889 356.609 513.094C356.609 462.299 356.808 456.293 357.715 436.226C358.56 417.682 361.671 407.619 364.258 400.904C367.716 392.023 371.833 385.687 378.486 379.025C385.139 372.363 391.469 368.239 400.365 364.797C407.06 362.186 417.143 359.097 435.688 358.254C455.737 357.332 461.76 357.148 512.532 357.148C563.305 357.148 569.334 357.344 589.4 358.257C607.945 359.101 618.008 362.213 624.723 364.8C633.604 368.242 639.94 372.375 646.602 379.028C653.264 385.681 657.372 392.026 660.829 400.907C663.441 407.602 666.53 417.685 667.373 436.229C668.295 456.296 668.479 462.302 668.479 513.097C668.479 563.892 668.295 569.898 667.373 589.965C666.528 608.509 663.424 618.589 660.829 625.288C657.372 634.168 653.254 640.504 646.602 647.151C639.949 653.798 633.604 657.922 624.723 661.379C618.028 663.99 607.945 667.079 589.4 667.922C569.351 668.844 563.328 669.028 512.532 669.028C461.737 669.028 455.731 668.844 435.688 667.922V667.919ZM434.113 324.033C413.864 324.955 400.027 328.166 387.943 332.868C375.437 337.723 364.835 344.238 354.249 354.807C343.662 365.377 337.165 375.98 332.309 388.502C327.607 400.593 324.396 414.422 323.474 434.671C322.537 454.952 322.322 461.436 322.322 513.091C322.322 564.746 322.537 571.23 323.474 591.511C324.396 611.761 327.607 625.589 332.309 637.68C337.165 650.187 343.664 660.81 354.249 671.375C364.833 681.94 375.421 688.445 387.943 693.314C400.05 698.016 413.864 701.227 434.113 702.149C454.404 703.071 460.877 703.301 512.532 703.301C564.187 703.301 570.671 703.087 590.952 702.149C611.203 701.227 625.03 698.016 637.122 693.314C649.628 688.445 660.23 681.944 670.816 671.375C681.403 660.805 687.886 650.187 692.756 637.68C697.458 625.589 700.684 611.76 701.591 591.511C702.513 571.215 702.727 564.746 702.727 513.091C702.727 461.436 702.513 454.952 701.591 434.671C700.669 414.421 697.458 400.586 692.756 388.502C687.886 375.995 681.386 365.394 670.816 354.807C660.247 344.221 649.628 337.723 637.137 332.868C625.03 328.166 611.201 324.94 590.968 324.033C570.684 323.106 564.203 322.881 512.555 322.881C460.908 322.881 454.412 323.095 434.12 324.033" fill="white"/>
<defs>
<radialGradient id="paint0_radial_240_5044" cx="0" cy="0" r="1" gradientUnits="userSpaceOnUse" gradientTransform="translate(289.136 756.784) scale(650.05)">
<stop offset="0.09" stop-color="#FA8F21"/>
<stop offset="0.78" stop-color="#D82D7E"/>
</radialGradient>
<radialGradient id="paint1_radial_240_5044" cx="0" cy="0" r="1" gradientUnits="userSpaceOnUse" gradientTransform="translate(610.644 740.343) scale(572.05)">
<stop offset="0.64" stop-color="#8C3AAA" stop-opacity="0"/>
<stop offset="1" stop-color="#8C3AAA"/>
</radialGradient>
</defs>
</svg>
