<svg width="488" height="488" viewBox="0 0 488 488" fill="none" xmlns="http://www.w3.org/2000/svg">
<g clip-path="url(#clip0_225_5112)">
<path d="M481.8 452.999L341.8 312.899C369.4 279.799 386 237.499 386 191.299C386 85.8992 299.5 0.199219 193.1 0.199219C86.7 0.199219 0 85.9992 0 191.399C0 296.799 86.5 382.499 192.9 382.499C238.1 382.499 279.7 366.999 312.7 341.099L453.2 481.599C461.4 489.799 473.6 489.799 481.8 481.599C490 473.399 490 461.199 481.8 452.999ZM41 191.399C41 108.599 109.2 41.2992 192.9 41.2992C276.6 41.2992 344.8 108.599 344.8 191.399C344.8 274.199 276.6 341.499 192.9 341.499C109.2 341.499 41 274.099 41 191.399Z" fill="#757F8A"/>
</g>
<defs>
<clipPath id="clip0_225_5112">
<rect width="487.95" height="487.95" fill="white"/>
</clipPath>
</defs>
</svg>
