<svg width="800" height="800" viewBox="0 0 800 800" fill="none" xmlns="http://www.w3.org/2000/svg">
<path d="M594.958 571.49L480.193 456.548C502.818 429.392 516.426 394.688 516.426 356.784C516.426 270.311 445.517 200 358.295 200C271.073 200 200 270.393 200 356.866C200 443.339 270.909 513.65 358.131 513.65C395.184 513.65 429.286 500.933 456.338 479.684L571.513 594.954C578.235 601.682 588.236 601.682 594.958 594.954C601.68 588.227 601.68 578.218 594.958 571.49ZM233.61 356.866C233.61 288.934 289.517 233.72 358.131 233.72C426.745 233.72 482.652 288.934 482.652 356.866C482.652 424.797 426.745 480.012 358.131 480.012C289.517 480.012 233.61 424.715 233.61 356.866Z" fill="#F0F1F5"/>
</svg>
