<svg width="1024" height="1024" viewBox="0 0 1024 1024" fill="none" xmlns="http://www.w3.org/2000/svg">
<rect x="256" y="256" width="512" height="512" rx="112" fill="#30A3E6"/>
<path d="M455 660C444 660 445 656 442 646L410 541L655 397" fill="#C8DAEA"/>
<path d="M455 660C462 660 466 656 471 652L516 609L460 575" fill="#A9C9DD"/>
<path d="M460 575L595 674C609 683 621 678 625 660L680 402C685 380 671 370 656 377L335 501C314 509 314 522 331 527L414 553L604 432C613 427 621 429 615 436" fill="#F6FBFE"/>
</svg>
