<svg width="400" height="400" viewBox="0 0 400 400" fill="none" xmlns="http://www.w3.org/2000/svg">
<path fill-rule="evenodd" clip-rule="evenodd" d="M394.676 31.0383C401.775 23.9379 401.775 12.4259 394.676 5.32554C387.575 -1.77518 376.062 -1.77518 368.96 5.32554L200 174.287L31.0383 5.32554C23.9379 -1.77518 12.4259 -1.77518 5.32554 5.32554C-1.77518 12.4259 -1.77518 23.9379 5.32554 31.0383L174.287 200L5.32554 368.96C-1.77518 376.062 -1.77518 387.575 5.32554 394.676C12.4259 401.775 23.9379 401.775 31.0383 394.676L200 225.713L368.96 394.676C376.062 401.775 387.575 401.775 394.676 394.676C401.775 387.575 401.775 376.062 394.676 368.96L225.713 200L394.676 31.0383Z" fill="#808993"/>
</svg>
