<svg width="26" height="26" viewBox="0 0 26 26" fill="none" xmlns="http://www.w3.org/2000/svg">
<g clip-path="url(#clip0_651_4990)">
<path d="M25.5938 11.7594L22.75 8.96442L17.3333 3.70261L13.5503 0.21537C13.2351 -0.0760267 12.7477 -0.0706709 12.4378 0.22628L0.400894 11.7647C0.146194 12.0194 0 12.3703 0 12.729C0 13.4754 0.607788 14.083 1.35423 14.083H3.25V24.3747C3.25 25.2718 3.978 25.9997 4.875 25.9997H9.47923C9.92773 25.9997 10.2917 25.6357 10.2917 25.1872V17.8747C10.2917 17.7264 10.4129 17.604 10.5625 17.604H15.4375C15.5859 17.604 15.7083 17.7264 15.7083 17.8747V25.1872C15.7083 25.6357 16.0723 25.9997 16.5208 25.9997H21.125C22.022 25.9997 22.75 25.2718 22.75 24.3747V14.083H24.6458C25.3922 14.083 26 13.4754 26 12.729C26 12.3703 25.8538 12.0194 25.5938 11.7594Z" fill="#808993"/>
</g>
<defs>
<clipPath id="clip0_651_4990">
<rect width="26" height="26" fill="white"/>
</clipPath>
</defs>
</svg>
