<svg width="26" height="26" viewBox="0 0 26 26" fill="none" xmlns="http://www.w3.org/2000/svg">
<path d="M17.2349 13.1333L26.0001 18.6745V7.358L17.2349 13.1333Z" fill="#F0F1F5"/>
<path d="M0 7.358V18.6745L8.76525 13.1333L0 7.358Z" fill="#F0F1F5"/>
<path d="M24.3751 4.0625H1.62508C0.814203 4.0625 0.170703 4.667 0.0488281 5.44538L13.0001 13.9783L25.9513 5.44538C25.8295 4.667 25.186 4.0625 24.3751 4.0625Z" fill="#F0F1F5"/>
<path d="M15.7465 14.1148L13.4471 15.6293C13.3106 15.7186 13.1562 15.7625 13.0002 15.7625C12.8442 15.7625 12.6899 15.7186 12.5534 15.6293L10.254 14.1131L0.0522461 20.566C0.177371 21.3379 0.817621 21.9375 1.62525 21.9375H24.3752C25.1829 21.9375 25.8231 21.3379 25.9482 20.566L15.7465 14.1148Z" fill="#F0F1F5"/>
</svg>
