<svg width="26" height="26" viewBox="0 0 26 26" fill="none" xmlns="http://www.w3.org/2000/svg">
<path d="M23.1775 18.3225C21.5396 16.9379 20.6003 14.9142 20.6003 12.7703V9.75C20.6003 5.93784 17.7685 2.78206 14.1003 2.25342V1.08327C14.1003 0.484207 13.6149 0 13.0169 0C12.419 0 11.9336 0.484207 11.9336 1.08327V2.25342C8.26425 2.78206 5.43359 5.93784 5.43359 9.75V12.7703C5.43359 14.9142 4.49434 16.9379 2.84653 18.331C2.4252 18.6919 2.18359 19.2161 2.18359 19.7708C2.18359 20.8163 3.03398 21.6667 4.07936 21.6667H21.9544C22.9999 21.6667 23.8503 20.8163 23.8503 19.7708C23.8503 19.2161 23.6087 18.6919 23.1775 18.3225Z" fill="#F0F1F5"/>
<path d="M13.0168 26C14.9788 26 16.6201 24.6013 16.997 22.75H9.03662C9.41371 24.6013 11.055 26 13.0168 26Z" fill="#F0F1F5"/>
</svg>
