<svg width="26" height="26" viewBox="0 0 26 26" fill="none" xmlns="http://www.w3.org/2000/svg">
<g clip-path="url(#clip0_651_4997)">
<path d="M25.5932 4.60843L24.3162 3.94777C21.4899 2.50723 18.1443 2.50773 15.3182 3.94927L13.6372 4.81877V23.1884L14.7352 22.6203C17.9275 20.9916 21.7067 20.9911 24.8994 22.6191C25.1327 22.7408 25.4125 22.7319 25.6375 22.5954C25.8625 22.459 25.9999 22.2151 25.9999 21.952V5.27655C26.0007 4.99526 25.8436 4.73712 25.5932 4.60843V4.60843Z" fill="#808993"/>
<path d="M1.68101 3.94927L0.406502 4.60843C0.156329 4.73712 -0.000744135 4.99526 2.65114e-06 5.27655V21.952C2.65114e-06 22.2146 0.136913 22.4583 0.361197 22.5947C0.585481 22.7314 0.864777 22.7411 1.09802 22.6203C4.29027 20.9916 8.06974 20.9911 11.2622 22.6191L12.3627 23.1884V4.81877L10.679 3.94777C7.85268 2.50723 4.50709 2.50773 1.68101 3.94927V3.94927Z" fill="#808993"/>
</g>
<defs>
<clipPath id="clip0_651_4997">
<rect width="26" height="26" fill="white"/>
</clipPath>
</defs>
</svg>
