<svg width="64" height="34" viewBox="0 0 64 34" fill="none" xmlns="http://www.w3.org/2000/svg">
<path d="M22.868 13.256C22.868 15.056 22.592 16.904 22.04 18.8C21.512 20.696 20.432 22.376 18.8 23.84C17.168 25.28 14.852 26 11.852 26C8.852 26 6.536 25.28 4.904 23.84C3.296 22.376 2.228 20.696 1.7 18.8C1.172 16.904 0.908 15.056 0.908 13.256C0.908 11.456 1.172 9.608 1.7 7.712C2.228 5.816 3.296 4.136 4.904 2.672C6.536 1.208 8.852 0.475998 11.852 0.475998C14.852 0.475998 17.168 1.208 18.8 2.672C20.432 4.136 21.512 5.828 22.04 7.748C22.592 9.644 22.868 11.48 22.868 13.256ZM18.8 13.256C18.8 10.472 18.332 7.952 17.396 5.696C16.46 3.44 14.612 2.312 11.852 2.312C9.14 2.312 7.316 3.44 6.38 5.696C5.444 7.952 4.976 10.472 4.976 13.256C4.976 16.016 5.444 18.524 6.38 20.78C7.316 23.036 9.14 24.164 11.852 24.164C14.612 24.164 16.46 23.048 17.396 20.816C18.332 18.56 18.8 16.04 18.8 13.256Z" fill="#FC575E"/>
<path d="M34.2375 32.48C35.3175 32.48 36.2775 32.264 37.1175 31.832C37.9815 31.424 38.6535 30.884 39.1335 30.212C39.6135 29.54 39.8535 28.856 39.8535 28.16C39.8535 26.984 39.2295 26.156 37.9815 25.676C36.7575 25.172 35.1015 24.848 33.0135 24.704C30.9495 24.56 29.3655 24.236 28.2615 23.732C27.1815 23.204 26.6415 22.424 26.6415 21.392C26.6415 20.768 26.8695 20.276 27.3255 19.916C27.7815 19.556 28.4535 19.172 29.3415 18.764C30.1575 18.428 30.7335 18.14 31.0695 17.9V17.792C30.1815 17.432 29.5095 16.856 29.0535 16.064C28.6215 15.272 28.4055 14.456 28.4055 13.616C28.4055 11.696 29.1015 10.268 30.4935 9.332C31.8855 8.396 33.6015 7.928 35.6415 7.928C36.3615 7.928 37.1535 8.024 38.0175 8.216C38.9055 8.384 39.6135 8.66 40.1415 9.044C40.2615 8.996 40.3455 8.9 40.3935 8.756C40.4415 8.588 40.4775 8.444 40.5015 8.324C40.5255 8.204 40.5495 8.108 40.5735 8.036C40.6455 7.46 40.7895 7.016 41.0055 6.704C41.2215 6.368 41.6535 6.2 42.3015 6.2C42.6375 6.2 42.9255 6.356 43.1655 6.668C43.4295 6.956 43.5615 7.304 43.5615 7.712C43.5615 8.48 42.8775 9.272 41.5095 10.088C41.9175 10.52 42.2415 11.036 42.4815 11.636C42.7215 12.212 42.8415 12.8 42.8415 13.4C42.8415 14.48 42.5055 15.428 41.8335 16.244C41.1855 17.06 40.3095 17.696 39.2055 18.152C38.1255 18.608 36.9495 18.836 35.6775 18.836C34.4295 18.836 33.4695 18.728 32.7975 18.512C32.4855 18.752 32.1855 18.956 31.8975 19.124C31.4415 19.412 31.1295 19.64 30.9615 19.808C30.8175 19.976 30.7455 20.216 30.7455 20.528C30.7455 20.912 31.0215 21.236 31.5735 21.5C32.1495 21.74 33.2055 21.896 34.7415 21.968C37.6935 22.112 39.9015 22.652 41.3655 23.588C42.8295 24.524 43.5615 25.7 43.5615 27.116C43.5615 28.412 43.1415 29.576 42.3015 30.608C41.4855 31.64 40.2975 32.444 38.7375 33.02C37.1775 33.62 35.3535 33.92 33.2655 33.92C31.2975 33.92 29.7135 33.5 28.5135 32.66C27.3375 31.844 26.7495 30.788 26.7495 29.492C26.7495 28.772 26.9415 28.136 27.3255 27.584C27.7095 27.032 28.1535 26.6 28.6575 26.288C29.1615 25.976 29.5815 25.82 29.9175 25.82C30.1815 25.82 30.3855 25.892 30.5295 26.036C30.6735 26.18 30.7455 26.348 30.7455 26.54C30.7455 26.66 30.6255 26.864 30.3855 27.152C30.1455 27.44 29.9415 27.728 29.7735 28.016C29.6295 28.328 29.5575 28.736 29.5575 29.24C29.5575 30.2 30.0015 30.98 30.8895 31.58C31.8015 32.18 32.9175 32.48 34.2375 32.48ZM39.1335 13.328C39.1335 12.152 38.8215 11.204 38.1975 10.484C37.5975 9.74 36.7455 9.368 35.6415 9.368C34.5615 9.368 33.6975 9.74 33.0495 10.484C32.4255 11.204 32.1135 12.2 32.1135 13.472C32.1135 14.648 32.4255 15.596 33.0495 16.316C33.6735 17.036 34.5375 17.396 35.6415 17.396C36.6975 17.396 37.5375 17.024 38.1615 16.28C38.8095 15.536 39.1335 14.552 39.1335 13.328Z" fill="#F0F1F5"/>
<path d="M55.2745 26C52.6585 26 50.6305 25.244 49.1905 23.732C47.7505 22.22 47.0305 19.964 47.0305 16.964C47.0305 13.916 47.7625 11.648 49.2265 10.16C50.6905 8.672 52.7065 7.928 55.2745 7.928C57.8425 7.928 59.8585 8.672 61.3225 10.16C62.7865 11.648 63.5185 13.916 63.5185 16.964C63.5185 19.964 62.7985 22.22 61.3585 23.732C59.9185 25.244 57.8905 26 55.2745 26ZM55.2745 24.56C56.6905 24.56 57.7705 24.02 58.5145 22.94C59.2585 21.836 59.6305 19.844 59.6305 16.964C59.6305 14.132 59.2465 12.164 58.4785 11.06C57.7105 9.932 56.6425 9.368 55.2745 9.368C53.9305 9.368 52.8625 9.932 52.0705 11.06C51.3025 12.188 50.9185 14.156 50.9185 16.964C50.9185 19.82 51.2905 21.8 52.0345 22.904C52.7785 24.008 53.8585 24.56 55.2745 24.56Z" fill="#66CC99"/>
</svg>
