<svg width="56" height="36" viewBox="0 0 56 36" fill="none" xmlns="http://www.w3.org/2000/svg">
<path d="M19.89 18.38C19.89 19.88 19.66 21.42 19.2 23C18.76 24.58 17.86 25.98 16.5 27.2C15.14 28.4 13.21 29 10.71 29C8.21 29 6.28 28.4 4.92 27.2C3.58 25.98 2.69 24.58 2.25 23C1.81 21.42 1.59 19.88 1.59 18.38C1.59 16.88 1.81 15.34 2.25 13.76C2.69 12.18 3.58 10.78 4.92 9.56C6.28 8.34 8.21 7.73 10.71 7.73C13.21 7.73 15.14 8.34 16.5 9.56C17.86 10.78 18.76 12.19 19.2 13.79C19.66 15.37 19.89 16.9 19.89 18.38ZM16.5 18.38C16.5 16.06 16.11 13.96 15.33 12.08C14.55 10.2 13.01 9.26 10.71 9.26C8.45 9.26 6.93 10.2 6.15 12.08C5.37 13.96 4.98 16.06 4.98 18.38C4.98 20.68 5.37 22.77 6.15 24.65C6.93 26.53 8.45 27.47 10.71 27.47C13.01 27.47 14.55 26.54 15.33 24.68C16.11 22.8 16.5 20.7 16.5 18.38Z" fill="#FC575E"/>
<path d="M29.3646 34.4C30.2646 34.4 31.0646 34.22 31.7646 33.86C32.4846 33.52 33.0446 33.07 33.4446 32.51C33.8446 31.95 34.0446 31.38 34.0446 30.8C34.0446 29.82 33.5246 29.13 32.4846 28.73C31.4646 28.31 30.0846 28.04 28.3446 27.92C26.6246 27.8 25.3046 27.53 24.3846 27.11C23.4846 26.67 23.0346 26.02 23.0346 25.16C23.0346 24.64 23.2246 24.23 23.6046 23.93C23.9846 23.63 24.5446 23.31 25.2846 22.97C25.9646 22.69 26.4446 22.45 26.7246 22.25V22.16C25.9846 21.86 25.4246 21.38 25.0446 20.72C24.6846 20.06 24.5046 19.38 24.5046 18.68C24.5046 17.08 25.0846 15.89 26.2446 15.11C27.4046 14.33 28.8346 13.94 30.5346 13.94C31.1346 13.94 31.7946 14.02 32.5146 14.18C33.2546 14.32 33.8446 14.55 34.2846 14.87C34.3846 14.83 34.4546 14.75 34.4946 14.63C34.5346 14.49 34.5646 14.37 34.5846 14.27C34.6046 14.17 34.6246 14.09 34.6446 14.03C34.7046 13.55 34.8246 13.18 35.0046 12.92C35.1846 12.64 35.5446 12.5 36.0846 12.5C36.3646 12.5 36.6046 12.63 36.8046 12.89C37.0246 13.13 37.1346 13.42 37.1346 13.76C37.1346 14.4 36.5646 15.06 35.4246 15.74C35.7646 16.1 36.0346 16.53 36.2346 17.03C36.4346 17.51 36.5346 18 36.5346 18.5C36.5346 19.4 36.2546 20.19 35.6946 20.87C35.1546 21.55 34.4246 22.08 33.5046 22.46C32.6046 22.84 31.6246 23.03 30.5646 23.03C29.5246 23.03 28.7246 22.94 28.1646 22.76C27.9046 22.96 27.6546 23.13 27.4146 23.27C27.0346 23.51 26.7746 23.7 26.6346 23.84C26.5146 23.98 26.4546 24.18 26.4546 24.44C26.4546 24.76 26.6846 25.03 27.1446 25.25C27.6246 25.45 28.5046 25.58 29.7846 25.64C32.2446 25.76 34.0846 26.21 35.3046 26.99C36.5246 27.77 37.1346 28.75 37.1346 29.93C37.1346 31.01 36.7846 31.98 36.0846 32.84C35.4046 33.7 34.4146 34.37 33.1146 34.85C31.8146 35.35 30.2946 35.6 28.5546 35.6C26.9146 35.6 25.5946 35.25 24.5946 34.55C23.6146 33.87 23.1246 32.99 23.1246 31.91C23.1246 31.31 23.2846 30.78 23.6046 30.32C23.9246 29.86 24.2946 29.5 24.7146 29.24C25.1346 28.98 25.4846 28.85 25.7646 28.85C25.9846 28.85 26.1546 28.91 26.2746 29.03C26.3946 29.15 26.4546 29.29 26.4546 29.45C26.4546 29.55 26.3546 29.72 26.1546 29.96C25.9546 30.2 25.7846 30.44 25.6446 30.68C25.5246 30.94 25.4646 31.28 25.4646 31.7C25.4646 32.5 25.8346 33.15 26.5746 33.65C27.3346 34.15 28.2646 34.4 29.3646 34.4ZM33.4446 18.44C33.4446 17.46 33.1846 16.67 32.6646 16.07C32.1646 15.45 31.4546 15.14 30.5346 15.14C29.6346 15.14 28.9146 15.45 28.3746 16.07C27.8546 16.67 27.5946 17.5 27.5946 18.56C27.5946 19.54 27.8546 20.33 28.3746 20.93C28.8946 21.53 29.6146 21.83 30.5346 21.83C31.4146 21.83 32.1146 21.52 32.6346 20.9C33.1746 20.28 33.4446 19.46 33.4446 18.44Z" fill="#F0F1F5"/>
<path d="M46.8954 29C44.7154 29 43.0254 28.37 41.8254 27.11C40.6254 25.85 40.0254 23.97 40.0254 21.47C40.0254 18.93 40.6354 17.04 41.8554 15.8C43.0754 14.56 44.7554 13.94 46.8954 13.94C49.0354 13.94 50.7154 14.56 51.9354 15.8C53.1554 17.04 53.7654 18.93 53.7654 21.47C53.7654 23.97 53.1654 25.85 51.9654 27.11C50.7654 28.37 49.0754 29 46.8954 29ZM46.8954 27.8C48.0754 27.8 48.9754 27.35 49.5954 26.45C50.2154 25.53 50.5254 23.87 50.5254 21.47C50.5254 19.11 50.2054 17.47 49.5654 16.55C48.9254 15.61 48.0354 15.14 46.8954 15.14C45.7754 15.14 44.8854 15.61 44.2254 16.55C43.5854 17.49 43.2654 19.13 43.2654 21.47C43.2654 23.85 43.5754 25.5 44.1954 26.42C44.8154 27.34 45.7154 27.8 46.8954 27.8Z" fill="#66CC99"/>
</svg>
