<svg width="26" height="26" viewBox="0 0 26 26" fill="none" xmlns="http://www.w3.org/2000/svg">
<path d="M25.6823 24.1508L18.2886 16.757C19.7208 14.9879 20.5831 12.74 20.5831 10.2917C20.5831 4.61718 15.966 0 10.2915 0C4.61708 0 0 4.61713 0 10.2916C0 15.9661 4.61713 20.5833 10.2916 20.5833C12.7399 20.5833 14.9878 19.721 16.7568 18.2888L24.1505 25.6826C24.3617 25.8938 24.639 26 24.9164 26C25.1938 26 25.4711 25.8938 25.6823 25.6826C26.1059 25.259 26.1059 24.5743 25.6823 24.1508ZM10.2916 18.4166C5.81094 18.4166 2.16666 14.7723 2.16666 10.2916C2.16666 5.81095 5.81094 2.16663 10.2916 2.16663C14.7722 2.16663 18.4165 5.81095 18.4165 10.2916C18.4165 14.7723 14.7722 18.4166 10.2916 18.4166Z" fill="#112233" fill-opacity="0.5"/>
</svg>
