<svg width="26" height="26" viewBox="0 0 26 26" fill="none" xmlns="http://www.w3.org/2000/svg">
<path d="M24.4766 12.5007H0V24.78H26V12.5007H24.4766ZM12.2377 14.0265H13.7623V15.55H12.2377V14.0265ZM10.7131 20.2072H12.2383V18.5992H10.7131V17.0758H13.7617V20.2072H15.2869V21.7306H10.7131V20.2072Z" fill="#808993"/>
<path d="M11.2548 10.9773V10.8771C11.2548 8.80717 9.95529 7.03539 8.12935 6.33377C8.80656 5.81207 9.24316 4.99342 9.24316 4.07242C9.24316 2.49641 7.9655 1.21875 6.3895 1.21875C4.81349 1.21875 3.53583 2.49641 3.53583 4.07242C3.53583 4.99342 3.97263 5.81207 4.64984 6.33377C2.8239 7.03539 1.52441 8.80717 1.52441 10.8771V10.9773H11.2548Z" fill="#808993"/>
<path d="M21.1722 10.9773V9.45125H24.4755V1.78824H13.2959V9.45125H16.5993V10.9773H21.1722Z" fill="#808993"/>
</svg>
